<?xml version="1.0" standalone="no"?>
<!DOCTYPE svg PUBLIC "-//W3C//DTD SVG 20010904//EN"
 "http://www.w3.org/TR/2001/REC-SVG-20010904/DTD/svg10.dtd">
<svg version="1.0" xmlns="http://www.w3.org/2000/svg"
 width="1920.000000pt" height="1920.000000pt" viewBox="0 0 1920.000000 1920.000000"
 preserveAspectRatio="xMidYMid meet">
<metadata>
Created by potrace 1.14, written by Peter Selinger 2001-2017
</metadata>
<g transform="translate(0.000000,1920.000000) scale(0.100000,-0.100000)"
fill="#000000" stroke="none">
<path d="M9259 18816 c-2 -2 -71 -7 -154 -11 -82 -3 -166 -8 -185 -10 -19 -2
-75 -6 -125 -10 -49 -4 -96 -8 -105 -10 -8 -1 -46 -6 -85 -9 -38 -4 -81 -9
-95 -11 -14 -2 -50 -7 -81 -10 -31 -3 -65 -7 -76 -9 -11 -3 -46 -7 -78 -10
-32 -4 -61 -8 -64 -10 -3 -2 -33 -7 -66 -11 -32 -3 -62 -8 -65 -10 -3 -1 -27
-6 -55 -9 -27 -4 -57 -9 -65 -11 -8 -2 -31 -6 -50 -9 -74 -11 -391 -80 -560
-121 -370 -92 -710 -197 -1054 -327 -89 -33 -174 -66 -191 -73 -16 -7 -86 -36
-155 -65 -256 -108 -549 -247 -775 -370 -65 -35 -330 -185 -355 -200 -8 -6
-71 -44 -140 -86 -193 -118 -596 -392 -683 -464 -7 -6 -52 -40 -102 -78 -49
-37 -94 -72 -100 -78 -5 -6 -28 -24 -50 -40 -22 -16 -42 -31 -45 -34 -3 -3
-61 -52 -130 -110 -128 -107 -155 -130 -269 -235 -224 -203 -612 -595 -728
-734 -15 -19 -37 -44 -48 -56 -11 -12 -31 -34 -44 -51 -13 -16 -47 -56 -76
-89 -105 -122 -354 -444 -457 -590 -88 -127 -251 -370 -313 -470 -288 -461
-558 -998 -751 -1495 -25 -63 -49 -124 -54 -135 -17 -38 -128 -361 -158 -460
-59 -193 -94 -308 -97 -324 -2 -9 -24 -95 -48 -191 -39 -152 -51 -204 -71
-305 -2 -11 -11 -51 -19 -90 -20 -90 -54 -269 -62 -320 -6 -41 -9 -60 -25
-155 -9 -55 -16 -100 -25 -174 -2 -21 -7 -55 -9 -75 -5 -34 -21 -182 -31 -281
-2 -25 -7 -81 -10 -125 -3 -44 -8 -102 -10 -130 -11 -124 -19 -411 -19 -640 1
-341 16 -650 49 -960 12 -122 17 -162 21 -185 2 -14 6 -45 10 -70 26 -206 110
-674 159 -885 199 -853 555 -1754 991 -2502 167 -288 490 -776 607 -918 4 -5
44 -57 88 -115 45 -58 91 -116 102 -130 12 -14 38 -45 57 -70 19 -25 37 -47
40 -50 5 -5 99 -115 135 -159 11 -13 29 -34 40 -45 11 -12 56 -62 100 -111 64
-71 201 -215 391 -409 6 -6 64 -60 129 -121 65 -60 131 -122 146 -136 15 -14
60 -55 100 -89 41 -35 76 -66 79 -69 3 -4 55 -47 115 -96 61 -50 132 -108 159
-130 27 -22 83 -66 125 -98 42 -32 87 -67 101 -77 14 -10 50 -37 80 -59 30
-22 66 -48 80 -59 88 -68 635 -424 700 -455 8 -4 32 -17 52 -30 265 -159 791
-419 1098 -544 47 -18 94 -38 105 -43 65 -30 407 -155 550 -201 194 -64 588
-177 674 -195 14 -3 79 -18 145 -34 111 -26 245 -55 306 -66 14 -3 59 -11 100
-19 41 -8 93 -17 115 -20 22 -4 47 -8 55 -10 8 -2 33 -7 55 -10 23 -3 52 -7
65 -10 75 -14 347 -49 480 -60 36 -3 79 -8 95 -10 17 -2 66 -7 110 -10 44 -4
100 -8 125 -10 295 -24 1025 -24 1290 0 25 2 81 6 125 10 126 10 187 15 225
20 19 2 81 9 137 15 56 6 112 13 125 15 12 3 46 7 73 10 28 3 61 8 75 10 14 3
40 7 58 10 56 9 95 15 152 25 122 21 148 26 245 45 39 8 81 16 95 19 51 9 177
37 230 51 30 8 66 16 80 18 101 19 749 207 775 226 6 4 30 13 55 20 67 20 417
152 565 214 361 151 804 373 1130 565 63 37 75 45 215 132 96 60 372 242 380
250 3 3 18 14 35 24 16 11 34 23 40 28 5 4 78 58 160 120 724 538 1359 1166
1897 1875 51 67 107 141 123 165 236 330 442 654 595 933 279 511 475 950 657
1475 41 118 76 222 78 230 2 8 20 69 40 135 34 112 108 386 125 465 4 19 24
109 44 199 54 241 94 466 132 746 8 61 17 125 19 144 3 18 8 61 10 96 3 35 8
78 10 97 2 18 7 74 11 123 3 50 8 106 9 125 25 245 25 1145 0 1301 -2 13 -6
71 -10 129 -4 58 -9 121 -11 140 -3 19 -7 53 -9 75 -4 45 -22 199 -30 260 -3
22 -15 99 -26 170 -11 72 -22 139 -23 150 -7 41 -17 101 -26 145 -6 25 -12 56
-14 70 -9 54 -39 191 -67 309 -16 68 -31 133 -33 145 -14 68 -108 403 -146
521 -106 328 -231 667 -325 880 -10 22 -21 49 -26 60 -58 140 -261 554 -364
740 -154 278 -401 673 -540 865 -11 15 -29 40 -40 56 -11 16 -31 45 -46 64
-14 19 -68 91 -120 160 -245 328 -523 645 -855 975 -225 224 -259 257 -424
400 -69 60 -127 112 -130 115 -3 3 -30 25 -60 50 -30 25 -64 53 -75 62 -11 9
-60 49 -110 88 -49 39 -97 76 -105 83 -311 250 -862 606 -1310 847 -303 162
-801 389 -1055 480 -27 10 -88 32 -135 50 -157 58 -469 160 -642 209 -105 30
-480 125 -528 135 -14 2 -45 9 -70 15 -25 5 -56 12 -70 15 -14 2 -72 13 -130
25 -102 20 -121 23 -204 36 -21 4 -48 9 -60 11 -11 2 -39 6 -61 9 -22 3 -51 7
-65 10 -14 3 -45 7 -70 10 -25 3 -56 8 -70 10 -14 3 -45 7 -70 10 -25 3 -85
10 -135 16 -49 5 -114 12 -144 14 -30 3 -73 7 -95 9 -23 3 -86 8 -141 12 -55
4 -120 8 -145 10 -62 5 -916 14 -921 10z m-8792 -9358 c-3 -7 -5 -2 -5 12 0
14 2 19 5 13 2 -7 2 -19 0 -25z m30 -720 c-3 -8 -6 -5 -6 6 -1 11 2 17 5 13 3
-3 4 -12 1 -19z m40 -380 c-3 -8 -6 -5 -6 6 -1 11 2 17 5 13 3 -3 4 -12 1 -19z
m20 -130 c-3 -8 -6 -5 -6 6 -1 11 2 17 5 13 3 -3 4 -12 1 -19z m10 -90 c-3 -7
-5 -2 -5 12 0 14 2 19 5 13 2 -7 2 -19 0 -25z m20 -110 c-3 -8 -6 -5 -6 6 -1
11 2 17 5 13 3 -3 4 -12 1 -19z m20 -120 c-3 -7 -5 -2 -5 12 0 14 2 19 5 13 2
-7 2 -19 0 -25z m20 -110 c-3 -7 -5 -2 -5 12 0 14 2 19 5 13 2 -7 2 -19 0 -25z
m20 -100 c-3 -8 -6 -5 -6 6 -1 11 2 17 5 13 3 -3 4 -12 1 -19z m20 -100 c-3
-7 -5 -2 -5 12 0 14 2 19 5 13 2 -7 2 -19 0 -25z m20 -90 c-3 -7 -5 -2 -5 12
0 14 2 19 5 13 2 -7 2 -19 0 -25z m10 -40 c-3 -8 -6 -5 -6 6 -1 11 2 17 5 13
3 -3 4 -12 1 -19z m20 -80 c-3 -8 -6 -5 -6 6 -1 11 2 17 5 13 3 -3 4 -12 1
-19z m10 -50 c-3 -7 -5 -2 -5 12 0 14 2 19 5 13 2 -7 2 -19 0 -25z m10 -40
c-3 -8 -6 -5 -6 6 -1 11 2 17 5 13 3 -3 4 -12 1 -19z m21 -69 c-3 -8 -7 -3
-11 10 -4 17 -3 21 5 13 5 -5 8 -16 6 -23z m29 -121 c-3 -7 -5 -2 -5 12 0 14
2 19 5 13 2 -7 2 -19 0 -25z m30 -100 c-3 -8 -6 -5 -6 6 -1 11 2 17 5 13 3 -3
4 -12 1 -19z m40 -140 c-3 -8 -6 -5 -6 6 -1 11 2 17 5 13 3 -3 4 -12 1 -19z
m32 -93 c0 -5 -4 -3 -9 5 -5 8 -9 22 -9 30 0 16 17 -16 18 -35z m28 -97 c-3
-8 -6 -5 -6 6 -1 11 2 17 5 13 3 -3 4 -12 1 -19z m33 -83 c0 -5 -5 -3 -10 5
-5 8 -10 20 -10 25 0 6 5 3 10 -5 5 -8 10 -19 10 -25z m60 -170 c0 -5 -5 -3
-10 5 -5 8 -10 20 -10 25 0 6 5 3 10 -5 5 -8 10 -19 10 -25z m7 -37 c-3 -8 -6
-5 -6 6 -1 11 2 17 5 13 3 -3 4 -12 1 -19z m21 -43 c-3 -3 -9 2 -12 12 -6 14
-5 15 5 6 7 -7 10 -15 7 -18z m36 -95 c5 -17 4 -20 -2 -10 -5 8 -13 26 -16 40
-5 17 -4 20 2 10 5 -8 13 -26 16 -40z m37 -86 c5 -15 8 -29 5 -31 -2 -2 -8 10
-14 26 -13 38 -5 41 9 5z m58 -149 c0 -5 -6 1 -14 15 -8 14 -14 30 -14 35 0 6
6 -1 14 -15 8 -14 14 -29 14 -35z m15 -31 c3 -8 2 -12 -4 -9 -6 3 -10 10 -10
16 0 14 7 11 14 -7z m26 -59 c0 -5 -5 -3 -10 5 -5 8 -10 20 -10 25 0 6 5 3 10
-5 5 -8 10 -19 10 -25z m40 -99 c-1 -14 -39 65 -39 79 0 6 9 -8 19 -29 11 -22
20 -44 20 -50z m44 -92 c3 -8 2 -12 -4 -9 -6 3 -10 10 -10 16 0 14 7 11 14 -7z
m35 -79 c0 -5 -6 1 -14 15 -8 14 -14 30 -14 35 0 6 6 -1 14 -15 8 -14 14 -29
14 -35z m15 -31 c3 -8 2 -12 -4 -9 -6 3 -10 10 -10 16 0 14 7 11 14 -7z m34
-69 c-3 -3 -9 2 -12 12 -6 14 -5 15 5 6 7 -7 10 -15 7 -18z m20 -40 c-3 -3 -9
2 -12 12 -6 14 -5 15 5 6 7 -7 10 -15 7 -18z m31 -60 c0 -5 -6 -1 -14 9 -8 11
-15 24 -15 30 0 5 7 1 15 -10 8 -10 14 -23 14 -29z m41 -80 c0 -5 -9 5 -20 23
-26 42 -26 56 0 17 11 -16 20 -34 20 -40z m31 -60 c7 -13 3 -12 -10 5 -11 14
-21 30 -21 35 0 11 14 -7 31 -40z m28 -55 c11 -24 11 -24 -3 -6 -9 11 -16 24
-16 30 0 12 5 7 19 -24z m42 -75 c7 -13 3 -12 -10 5 -11 14 -21 30 -21 35 0
11 14 -7 31 -40z m38 -67 c20 -40 20 -41 2 -18 -18 22 -34 60 -26 60 2 0 13
-19 24 -42z m45 -80 l16 -33 -20 24 c-11 13 -20 27 -20 32 0 17 9 9 24 -23z
m65 -110 c12 -21 20 -38 18 -38 -6 0 -67 98 -67 107 0 8 15 -13 49 -69z m41
-68 c6 -11 8 -20 6 -20 -3 0 -10 9 -16 20 -6 11 -8 20 -6 20 3 0 10 -9 16 -20z
m100 -163 c83 -129 82 -127 77 -127 -6 0 -141 208 -156 240 -14 31 -9 24 79
-113z m127 -194 c55 -84 59 -92 40 -73 -18 18 -90 130 -83 130 3 0 22 -26 43
-57z m158 -228 c108 -152 275 -369 377 -492 38 -46 65 -83 61 -82 -4 0 -44 46
-88 101 -44 56 -85 106 -90 112 -41 44 -370 496 -362 496 3 0 49 -61 102 -135z
m493 -628 c168 -209 659 -710 912 -927 41 -36 77 -67 80 -70 5 -6 224 -186
250 -207 8 -6 46 -37 85 -68 38 -31 76 -60 85 -65 8 -5 12 -11 9 -14 -3 -4
-26 11 -50 32 -24 21 -75 63 -114 92 -38 30 -75 59 -81 64 -7 6 -31 27 -54 45
-23 19 -48 40 -54 45 -6 6 -38 33 -71 61 -200 166 -436 393 -745 714 -36 38
-193 212 -215 240 -11 13 -35 41 -54 63 -18 21 -29 38 -25 37 5 0 24 -19 42
-42z m12872 -1111 c0 -2 -8 -10 -17 -17 -16 -13 -17 -12 -4 4 13 16 21 21 21
13z m-11295 -351 l30 -26 -30 18 c-16 10 -32 20 -35 23 -3 3 -29 23 -57 44
-29 21 -53 40 -53 42 0 7 105 -67 145 -101z m175 -124 c254 -177 563 -367 842
-519 87 -47 156 -87 155 -89 -5 -4 -268 139 -417 226 -165 98 -367 226 -515
328 -66 45 -139 95 -162 110 -23 16 -42 32 -43 36 0 5 21 -7 48 -26 26 -19 67
-49 92 -66z m10410 -55 c0 -2 -8 -10 -17 -17 -16 -13 -17 -12 -4 4 13 16 21
21 21 13z m-610 -380 c0 -2 -8 -10 -17 -17 -16 -13 -17 -12 -4 4 13 16 21 21
21 13z m-185 -106 c-3 -5 -12 -10 -18 -10 -7 0 -6 4 3 10 19 12 23 12 15 0z
m-8482 -128 c59 -30 107 -56 107 -58 0 -3 -3 -3 -7 -1 -5 2 -56 27 -115 56
-60 29 -108 55 -108 58 0 6 -4 8 123 -55z m8307 34 c0 -2 -7 -7 -16 -10 -8 -3
-12 -2 -9 4 6 10 25 14 25 6z m-65 -36 c-3 -5 -12 -10 -18 -10 -7 0 -6 4 3 10
19 12 23 12 15 0z m-7992 -119 c64 -30 115 -56 113 -58 -4 -4 -234 101 -244
112 -10 11 1 6 131 -54z m7802 29 c-3 -5 -12 -10 -18 -10 -7 0 -6 4 3 10 19
12 23 12 15 0z m-55 -24 c0 -2 -7 -7 -16 -10 -8 -3 -12 -2 -9 4 6 10 25 14 25
6z m-54 -25 c-6 -9 -46 -22 -46 -15 0 3 10 9 23 14 29 11 29 11 23 1z m-7453
-87 c48 -20 86 -39 83 -41 -4 -4 -186 74 -195 84 -7 8 2 4 112 -43z m7327 32
c0 -2 -7 -7 -16 -10 -8 -3 -12 -2 -9 4 6 10 25 14 25 6z m-130 -56 c0 -5 -5
-10 -11 -10 -5 0 -7 5 -4 10 3 6 8 10 11 10 2 0 4 -4 4 -10z m-7059 -35 c19
-8 27 -14 19 -14 -14 0 -72 28 -59 29 4 0 22 -7 40 -15z m229 -87 c85 -33 173
-66 195 -73 45 -15 36 -20 -10 -6 -57 18 -342 129 -361 140 -18 12 -18 12 1 6
11 -4 90 -34 175 -67z m6690 62 c-8 -5 -19 -10 -25 -10 -5 0 -3 5 5 10 8 5 20
10 25 10 6 0 3 -5 -5 -10z m-170 -64 c0 -2 -7 -7 -16 -10 -8 -3 -12 -2 -9 4 6
10 25 14 25 6z m-45 -16 c-3 -5 -12 -10 -18 -10 -7 0 -6 4 3 10 19 12 23 12
15 0z m-125 -50 c-8 -5 -22 -9 -30 -9 -10 0 -8 3 5 9 27 12 43 12 25 0z
m-6013 -53 c35 -11 61 -23 59 -25 -6 -6 -139 39 -151 51 -7 7 -3 7 10 3 11 -4
48 -17 82 -29z m5893 13 c-8 -5 -19 -10 -25 -10 -5 0 -3 5 5 10 8 5 20 10 25
10 6 0 3 -5 -5 -10z m-43 -16 c-3 -3 -12 -4 -19 -1 -8 3 -5 6 6 6 11 1 17 -2
13 -5z m-47 -14 c-8 -5 -19 -10 -25 -10 -5 0 -3 5 5 10 8 5 20 10 25 10 6 0 3
-5 -5 -10z m-5632 -36 c46 -14 81 -28 79 -30 -2 -2 -44 9 -93 25 -49 16 -85
30 -80 30 6 1 48 -11 94 -25z m5532 6 c-8 -5 -19 -10 -25 -10 -5 0 -3 5 5 10
8 5 20 10 25 10 6 0 3 -5 -5 -10z m-55 -20 c-27 -12 -43 -12 -25 0 8 5 22 9
30 9 10 0 8 -3 -5 -9z m-5300 -41 c14 -6 9 -7 -15 -3 -19 4 -44 11 -55 15 -14
6 -9 7 15 3 19 -4 44 -11 55 -15z m52 -15 c-3 -3 -12 -4 -19 -1 -8 3 -5 6 6 6
11 1 17 -2 13 -5z m5060 0 c-3 -3 -12 -4 -19 -1 -8 3 -5 6 6 6 11 1 17 -2 13
-5z m-4927 -34 c61 -16 113 -30 117 -30 3 0 4 -2 1 -5 -5 -6 -228 52 -237 61
-8 8 8 4 119 -26z m4890 26 c0 -2 -9 -6 -20 -9 -11 -3 -18 -1 -14 4 5 9 34 13
34 5z m-73 -22 c-3 -3 -12 -4 -19 -1 -8 3 -5 6 6 6 11 1 17 -2 13 -5z m-132
-34 c-27 -12 -43 -12 -25 0 8 5 22 9 30 9 10 0 8 -3 -5 -9z m-4466 -25 c10
-11 -7 -10 -49 2 l-45 13 45 -5 c24 -3 46 -8 49 -10z m4398 9 c-3 -3 -12 -4
-19 -1 -8 3 -5 6 6 6 11 1 17 -2 13 -5z m-40 -10 c-3 -3 -12 -4 -19 -1 -8 3
-5 6 6 6 11 1 17 -2 13 -5z m-4200 -40 c-6 -6 -117 18 -117 26 0 3 27 0 60 -8
33 -8 59 -16 57 -18z m4160 30 c-3 -3 -12 -4 -19 -1 -8 3 -5 6 6 6 11 1 17 -2
13 -5z m-40 -10 c-3 -3 -12 -4 -19 -1 -8 3 -5 6 6 6 11 1 17 -2 13 -5z m-37
-8 c0 -2 -11 -6 -25 -8 -13 -3 -22 -1 -19 3 5 9 44 13 44 5z m-3950 -37 c15
-5 6 -6 -25 -2 -27 3 -59 9 -70 14 -24 10 59 -1 95 -12z m3830 11 c-8 -5 -24
-9 -35 -9 -16 1 -16 2 5 9 35 11 48 11 30 0z m-67 -17 c-7 -2 -19 -2 -25 0 -7
3 -2 5 12 5 14 0 19 -2 13 -5z m-3673 -13 l25 -8 -25 0 c-14 0 -34 3 -45 8
l-20 9 20 -1 c11 0 31 -4 45 -8z m3617 4 c-3 -3 -12 -4 -19 -1 -8 3 -5 6 6 6
11 1 17 -2 13 -5z m-3551 -22 c-10 -2 -22 0 -28 6 -6 6 0 7 19 4 21 -5 23 -7
9 -10z m3479 8 c-11 -5 -29 -8 -40 -8 -16 0 -15 2 5 8 34 11 60 11 35 0z
m-3305 -38 c-14 -5 -139 18 -144 27 -2 3 32 0 76 -8 44 -9 75 -17 68 -19z
m3240 24 c0 -2 -15 -6 -34 -8 -19 -2 -32 0 -30 4 5 8 64 12 64 4z m-117 -23
c-7 -2 -21 -2 -30 0 -10 3 -4 5 12 5 17 0 24 -2 18 -5z m-2979 -23 c5 -5 -8
-5 -30 0 -22 5 -50 11 -64 13 -14 3 0 3 30 0 30 -2 59 -8 64 -13z m2862 8 c4
-7 4 -10 0 -7 -4 4 -23 3 -43 -1 -19 -5 -32 -5 -27 0 5 5 20 10 34 13 14 2 26
5 27 6 1 0 5 -5 9 -11z m57 5 c-7 -2 -21 -2 -30 0 -10 3 -4 5 12 5 17 0 24 -2
18 -5z m-2853 -22 c0 -4 -11 -6 -25 -3 -14 2 -25 6 -25 8 0 2 11 4 25 4 14 0
25 -4 25 -9z m2680 -1 c-8 -5 -19 -10 -25 -10 -5 0 -3 5 5 10 8 5 20 10 25 10
6 0 3 -5 -5 -10z m-2612 -7 c-10 -2 -28 -2 -40 0 -13 2 -5 4 17 4 22 1 32 -1
23 -4z m2527 -3 c-3 -5 -18 -9 -33 -9 l-27 1 30 8 c17 4 31 8 33 9 2 0 0 -3
-3 -9z m42 4 c-3 -3 -12 -4 -19 -1 -8 3 -5 6 6 6 11 1 17 -2 13 -5z m-2499
-11 c-10 -2 -26 -2 -35 0 -10 3 -2 5 17 5 19 0 27 -2 18 -5z m2372 -3 c0 -5
-12 -10 -27 -9 l-28 1 25 8 c14 4 26 8 28 9 1 1 2 -3 2 -9z m-2276 -8 c2 -4
-13 -6 -35 -4 -21 2 -39 6 -39 8 0 7 69 4 74 -4z m2216 4 c0 -2 -7 -7 -16 -10
-8 -3 -12 -2 -9 4 6 10 25 14 25 6z m-2116 -15 c-6 -6 -77 -1 -84 6 -2 2 17 3
43 2 25 -2 44 -5 41 -8z m2076 5 c0 -7 -61 -13 -65 -6 -2 3 12 7 31 8 19 2 34
1 34 -2z m-1985 -16 c-4 -7 -75 -1 -75 6 0 3 18 4 39 2 22 -1 38 -5 36 -8z
m1885 6 c0 -2 -18 -6 -39 -8 -22 -2 -37 0 -35 4 5 8 74 11 74 4z m-1784 -13
c-7 -7 -77 -5 -85 3 -2 2 17 4 44 4 27 0 45 -3 41 -7z m1682 0 c-10 -2 -28 -2
-40 0 -13 2 -5 4 17 4 22 1 32 -1 23 -4z m-1574 -11 c2 -4 -11 -6 -30 -4 -19
2 -34 6 -34 8 0 8 59 4 64 -4z m1449 1 c-7 -2 -21 -2 -30 0 -10 3 -4 5 12 5
17 0 24 -2 18 -5z m-1345 -10 c-10 -2 -28 -2 -40 0 -13 2 -5 4 17 4 22 1 32
-1 23 -4z m141 -9 c3 -3 -21 -3 -53 0 -32 2 -60 7 -63 10 -4 3 20 3 52 1 32
-3 61 -8 64 -11z m986 7 c-9 -8 -36 -10 -30 -2 2 4 11 8 20 8 8 0 13 -3 10 -6z
m73 2 c-10 -2 -28 -2 -40 0 -13 2 -5 4 17 4 22 1 32 -1 23 -4z m55 0 c-7 -2
-19 -2 -25 0 -7 3 -2 5 12 5 14 0 19 -2 13 -5z m-1045 -10 c-10 -2 -28 -2 -40
0 -13 2 -5 4 17 4 22 1 32 -1 23 -4z m76 -2 c4 -5 -3 -7 -14 -4 -23 6 -26 13
-6 13 8 0 17 -4 20 -9z m456 -4 c47 -2 -26 -4 -163 -4 -136 -1 -245 1 -243 5
4 7 208 6 406 -1z m130 -2 c0 -2 -9 -3 -19 -2 -11 0 -18 5 -15 9 4 6 34 0 34
-7z m54 3 c-3 -4 -11 -5 -19 -1 -21 7 -19 12 4 10 11 0 18 -5 15 -9z m94 5
c-10 -2 -26 -2 -35 0 -10 3 -2 5 17 5 19 0 27 -2 18 -5z"/>
</g>
</svg>
